<?xml version="1.0" encoding="UTF-8" standalone="no"?>
<!DOCTYPE svg PUBLIC "-//W3C//DTD SVG 1.1//EN" "http://www.w3.org/Graphics/SVG/1.1/DTD/svg11.dtd">
<svg width="100%" height="100%" viewBox="0 0 659 776" version="1.1" xmlns="http://www.w3.org/2000/svg" xmlns:xlink="http://www.w3.org/1999/xlink" xml:space="preserve" xmlns:serif="http://www.serif.com/" style="fill-rule:evenodd;clip-rule:evenodd;stroke-linejoin:round;stroke-miterlimit:2;">
    <g transform="matrix(1.18773,0,0,1.18773,-492.529,-92.1102)">
        <path d="M933.732,723.454C933.583,723.21 930.066,717.337 928.846,705.143C927.728,693.954 928.447,675.096 938.227,648.79C956.756,598.955 933.957,558.745 933.725,558.345L934.849,557.692C934.908,557.794 940.791,568.046 944.266,584.37C948.858,606.011 947.186,628.519 939.446,649.243C920.95,698.993 934.701,722.544 934.842,722.777L933.732,723.454Z" style="fill:rgb(241,241,241);fill-rule:nonzero;"/>
    </g>
    <g transform="matrix(1.18773,0,0,1.18773,-237.777,117.21)">
        <circle cx="712.001" cy="370.734" r="8.45" style="fill:rgb(241,241,241);"/>
    </g>
    <g transform="matrix(1.18773,0,0,1.18773,-237.777,117.21)">
        <circle cx="738.65" cy="401.933" r="8.45" style="fill:rgb(241,241,241);"/>
    </g>
    <g transform="matrix(1.18773,0,0,1.18773,-237.777,117.21)">
        <circle cx="720.451" cy="422.733" r="8.45" style="fill:rgb(241,241,241);"/>
    </g>
    <g transform="matrix(1.18773,0,0,1.18773,-237.777,117.21)">
        <circle cx="742.55" cy="440.282" r="8.45" style="fill:rgb(241,241,241);"/>
    </g>
    <g transform="matrix(1.18773,0,0,1.18773,-237.777,117.21)">
        <circle cx="713.951" cy="467.582" r="8.45" style="fill:rgb(241,241,241);"/>
    </g>
    <g transform="matrix(1.18773,0,0,1.18773,-492.529,-92.1102)">
        <path d="M938.837,723.765C938.837,723.765 930.387,702.965 955.736,687.366L938.837,723.765Z" style="fill:rgb(241,241,241);fill-rule:nonzero;"/>
    </g>
    <g transform="matrix(1.18773,0,0,1.18773,-492.529,-92.1102)">
        <path d="M928.445,723.388C928.445,723.388 924.599,701.269 894.835,701.459L928.445,723.388Z" style="fill:rgb(241,241,241);fill-rule:nonzero;"/>
    </g>
    <g transform="matrix(1.18773,0,0,1.18773,-439.081,-114.677)">
        <path d="M679.167,454.456C679.747,454.572 680.337,454.631 680.929,454.631C685.759,454.631 689.761,450.716 689.866,445.887L757.41,382.313L742.212,370.19L680.483,436.654C675.707,436.866 671.893,440.853 671.893,445.633C671.893,449.919 674.959,453.638 679.167,454.456L679.167,454.456Z" style="fill:rgb(160,97,106);fill-rule:nonzero;"/>
    </g>
    <g transform="matrix(1.18773,0,0,1.18773,-439.081,-114.677)">
        <path d="M747.839,392.59L734.698,377.19C734.079,376.465 733.739,375.542 733.739,374.588C733.739,373.209 734.451,371.923 735.62,371.191L752.727,360.482C754.735,358.788 757.278,357.859 759.904,357.859C766.011,357.859 771.036,362.884 771.036,368.991C771.036,372.248 769.607,375.346 767.129,377.46L753.908,392.623C753.147,393.495 752.045,393.996 750.888,393.996C749.715,393.996 748.6,393.482 747.839,392.59L747.839,392.59Z" style="fill:rgb(203,203,203);fill-rule:nonzero;"/>
    </g>
    <g transform="matrix(1.18773,0,0,1.18773,-110.689,72.0763)">
        <path d="M498.016,530.057L481.502,530.056L473.646,466.358L498.019,466.359L498.016,530.057Z" style="fill:rgb(160,97,106);fill-rule:nonzero;"/>
    </g>
    <g transform="matrix(1.18773,0,0,1.18773,-365.442,-137.244)">
        <path d="M716.714,722.3L663.465,722.298L663.465,721.624C663.466,710.255 672.821,700.899 684.191,700.899L716.715,700.9L716.714,722.3Z" style="fill:rgb(47,46,65);fill-rule:nonzero;"/>
    </g>
    <g transform="matrix(1.18773,0,0,1.18773,-202.145,92.2678)">
        <path d="M630.025,530.057L613.511,530.056L605.654,466.358L630.028,466.359L630.025,530.057Z" style="fill:rgb(160,97,106);fill-rule:nonzero;"/>
    </g>
    <g transform="matrix(1.10958,-0.423714,0.423714,1.10958,-573.002,199.546)">
        <path d="M645.763,419.363L647.982,402.449C650.083,401.962 652.26,403.005 653.197,404.948L675.933,449.021C676.174,449.527 676.3,450.08 676.3,450.64C676.3,452.308 675.188,453.785 674.585,456.246L670.02,473.373C667.643,474.049 665.106,472.843 664.128,470.572L650.259,438.358L649.837,438.592L647.197,432.489L647.636,432.265C647.18,429.55 644.261,427.638 645.763,419.363Z" style="fill:rgb(63,61,86);fill-rule:nonzero;"/>
    </g>
    <g transform="matrix(1.04727,-0.39992,0.39992,1.04727,-519.594,212.961)">
        <path d="M646.822,421.482L647.982,402.449C650.083,401.962 652.26,403.005 653.197,404.948L672.754,445.843C672.996,446.348 674.181,447.961 674.181,448.521C674.181,450.189 674.128,450.607 673.525,453.068L670.02,470.195C667.643,470.87 665.106,469.664 664.128,467.394L650.259,435.18L649.837,435.414L647.197,429.311L647.636,429.086C647.179,426.372 646.38,426.579 646.822,421.482Z" style="fill:rgb(91,1,125);fill-rule:nonzero;"/>
    </g>
    <g transform="matrix(1.18773,0,0,1.18773,-456.897,-117.053)">
        <path d="M848.723,722.3L795.474,722.298L795.474,721.624C795.474,710.255 804.83,700.899 816.2,700.899L848.724,700.9L848.723,722.3Z" style="fill:rgb(47,46,65);fill-rule:nonzero;"/>
    </g>
    <g transform="matrix(1.18773,0,0,1.18773,-439.081,-114.677)">
        <path d="M800.09,426.355L808.736,361.853L783.141,351.714L764.998,352.714L753.274,365.257C753.274,365.257 733.686,378.886 738.427,393.985L746.075,428.378L734.378,483.002L728.441,564.735L733.49,656.019L788.409,645.416L785.795,542.481L779.589,664.96L848.155,665.265L839.697,512.273C839.697,512.273 834.435,464.447 806.855,434.586L800.09,426.355Z" style="fill:rgb(47,46,65);fill-rule:nonzero;"/>
    </g>
    <g transform="matrix(0.842832,0.836867,-0.836867,0.842832,119.319,-640.9)">
        <path d="M779.203,511.688C781.005,511.478 782.6,510.416 783.255,508.171C783.673,506.739 786.076,503.964 785.124,499.468L832.367,434.652L820.407,379.976L801.868,385.83L809.485,438.01L768.709,497.145C767.851,498.554 766.053,499.668 764.573,500.397C760.341,502.485 762.264,510.07 767.195,510.07C767.909,510.07 768.122,512.839 774.251,512.378L779.203,511.688Z" style="fill:rgb(170,113,121);fill-rule:nonzero;"/>
    </g>
    <g transform="matrix(0.886554,0.790401,-0.790401,0.886554,72.2453,-626.965)">
        <path d="M823.599,393.652L803.488,395.971C803.335,395.988 803.182,395.997 803.029,395.997C800.83,395.997 799.02,394.188 799.02,391.989C799.02,391.946 799.021,391.903 799.023,391.86L799.674,371.687C799.63,371.285 799.608,370.88 799.608,370.475C799.608,364.368 804.633,359.343 810.74,359.343C816.367,359.343 821.155,363.611 821.798,369.202L827.011,388.632C827.102,388.971 827.148,389.32 827.148,389.67C827.148,391.696 825.612,393.42 823.599,393.652L823.599,393.652Z" style="fill:rgb(203,203,203);fill-rule:nonzero;"/>
    </g>
    <g transform="matrix(1.16109,-0.250141,0.250141,1.16109,-502.967,90.3008)">
        <path d="M746.36,335.224L746.36,309.311C746.36,290.262 762.035,274.587 781.084,274.587C800.133,274.587 815.808,290.262 815.808,309.311L815.808,335.224C815.805,337.782 813.702,339.886 811.144,339.889L751.025,339.889C748.467,339.886 746.363,337.782 746.36,335.224Z" style="fill:rgb(47,46,65);fill-rule:nonzero;"/>
    </g>
    <g transform="matrix(1.16109,-0.250141,0.250141,1.16109,-209.845,241.275)">
        <circle cx="559.463" cy="137.592" r="25.458" style="fill:rgb(160,97,106);"/>
    </g>
    <g transform="matrix(1.16109,-0.250141,0.250141,1.16109,-502.967,90.3008)">
        <path d="M738.145,311.384C738.162,296.322 750.551,283.933 765.614,283.916L770.797,283.916C785.859,283.933 798.248,296.322 798.265,311.384L798.265,311.902L787.312,311.902L783.576,301.442L782.829,311.902L777.169,311.902L775.284,306.624L774.907,311.902L738.145,311.902L738.145,311.384Z" style="fill:rgb(47,46,65);fill-rule:nonzero;"/>
    </g>
    <g transform="matrix(1.16109,-0.250141,0.250141,1.16109,-502.967,90.3008)">
        <path d="M771.443,342.803C770.396,341.384 770.253,339.482 771.078,337.924C776.57,327.477 784.26,308.175 774.053,296.271L773.32,295.415L802.952,295.415L802.952,339.903L776.033,344.653C775.761,344.701 775.484,344.726 775.208,344.726C773.718,344.726 772.316,344.009 771.443,342.803Z" style="fill:rgb(47,46,65);fill-rule:nonzero;"/>
    </g>
    <g transform="matrix(1,0,0,1,-100.486,51.7649)">
        <path d="M984.514,723.587L603.514,723.587C602.965,723.587 602.514,723.135 602.514,722.587C602.514,722.038 602.965,721.587 603.514,721.587L984.514,721.587C985.062,721.587 985.514,722.038 985.514,722.587C985.514,723.135 985.062,723.587 984.514,723.587Z" style="fill:rgb(203,203,203);fill-rule:nonzero;"/>
    </g>
    <g transform="matrix(1.18773,0,0,1.18773,-91.6853,2)">
        <path d="M152,2L440.973,2L440.973,146.107L424.345,146.107L424.345,183.797L386.656,146.107L152,146.107L152,2Z" style="fill:white;fill-rule:nonzero;"/>
    </g>
    <g transform="matrix(1.18773,0,0,1.18773,-346.438,-207.32)">
        <path d="M640.831,364.861L600.314,324.342L364.486,324.342L364.486,176.235L657.459,176.235L657.459,324.342L640.831,324.342L640.831,364.861ZM368.486,320.342L601.971,320.342L636.831,355.204L636.831,320.342L653.459,320.342L653.459,180.235L368.486,180.235L368.486,320.342Z" style="fill:rgb(229,229,229);fill-rule:nonzero;"/>
    </g>
    <g transform="matrix(0.77122,0,0,1.18773,116.888,2)">
        <rect x="44.502" y="50.8" width="199.613" height="6.058" style="fill:rgb(91,1,125);"/>
    </g>
    <g transform="matrix(0.641505,0,0,1.18773,122.499,2)">
        <rect x="44.207" y="71.756" width="347.908" height="6.058" style="fill:rgb(91,1,125);"/>
    </g>
    <g transform="matrix(0.637552,0,0,1.18773,124.049,2)">
        <rect x="44.548" y="92.712" width="347.567" height="6.058" style="fill:rgb(91,1,125);"/>
    </g>
    <g transform="matrix(-1.35219,0,0,1.35224,1271.33,-277.33)">
        <path d="M932.516,707.399C926.438,728.485 908.69,743.245 890.178,755.783C887.593,757.535 885.007,759.245 882.421,760.916C882.403,760.924 882.385,760.94 882.367,760.948C882.243,761.028 882.118,761.108 882.002,761.188C881.468,761.532 880.934,761.877 880.405,762.217L880.696,762.347C880.696,762.347 880.981,762.499 880.669,762.372C880.576,762.333 880.479,762.298 880.386,762.259C869.631,757.921 858.685,753.264 850.444,745.139C841.894,736.701 836.898,723.466 841.527,712.381C842.136,710.929 842.904,709.55 843.819,708.268C844.194,707.731 844.599,707.216 845.02,706.712C849.326,701.456 855.773,698.404 862.567,698.404C872.187,698.404 880.808,704.523 883.982,713.605C885.342,700.942 874.9,690.334 864.852,682.508C854.799,674.685 843.375,666.166 841.432,653.573C840.346,646.566 842.783,639.776 847.221,634.325C847.359,634.16 847.496,633.994 847.637,633.833C853.038,627.487 860.642,623.408 868.916,622.417C884.332,620.815 899.305,628.975 910.504,639.693C928.529,656.937 939.425,683.425 932.516,707.399Z" style="fill:rgb(242,242,242);fill-rule:nonzero;"/>
    </g>
    <g transform="matrix(-1.35219,0,0,1.35224,1271.33,-277.33)">
        <path d="M903.54,679.819C906.499,684.422 908.77,689.432 910.283,694.69C911.562,699.39 912.132,704.255 911.972,709.124C911.56,719.141 908.747,728.914 903.772,737.618C900.024,744.222 895.456,750.325 890.178,755.783C887.593,757.535 885.007,759.245 882.421,760.916C882.403,760.924 882.385,760.94 882.367,760.948C882.243,761.028 882.118,761.108 882.002,761.188C881.468,761.532 880.934,761.877 880.405,762.217C880.405,762.217 880.981,762.499 880.669,762.372C880.576,762.333 880.479,762.298 880.386,762.259C882.34,746.237 876.39,730.225 864.446,719.368C858.541,714.095 851.473,710.291 843.819,708.268C844.194,707.731 844.599,707.216 845.02,706.712C847.976,707.541 850.853,708.629 853.618,709.965C863.498,714.71 871.592,722.514 876.695,732.214C881.274,741.023 883.246,750.959 882.377,760.849C882.818,760.449 883.261,760.04 883.69,759.634C891.862,752.015 899.121,743.269 904.033,733.176C908.295,724.629 910.39,715.164 910.133,705.617C909.732,695.206 905.584,685.563 899.578,677.169C892.996,668.213 885.22,660.199 876.467,653.35C867.645,646.284 857.992,640.324 847.722,635.604C847.244,635.38 847.022,634.814 847.221,634.325C847.29,634.113 847.439,633.936 847.637,633.833C847.844,633.744 848.08,633.754 848.278,633.86C849.546,634.444 850.805,635.036 852.054,635.653C862.457,640.795 872.181,647.21 881.003,654.749C889.524,662.014 897.546,670.314 903.54,679.819Z" style="fill:white;fill-rule:nonzero;"/>
    </g>
    <g transform="matrix(-1.35219,0,0,1.35224,1235.7,-273.767)">
        <path d="M749.026,369.021C741.929,365.719 733.216,364.637 725.994,367.705C718.773,370.772 713.85,378.636 716.185,385.595C717.243,388.751 719.655,391.854 718.715,395.04C717.992,397.493 715.47,399.113 712.993,400.264C710.515,401.416 707.806,402.384 706.014,404.326C704.223,406.268 703.849,409.611 706.087,411.117C706.824,411.613 707.746,411.849 708.461,412.371C709.707,413.384 710.176,415.086 709.625,416.594C709.029,418.077 708.044,419.373 706.774,420.344C704.234,422.535 700.876,425.043 701.665,428.153C702.259,429.838 703.641,431.131 705.362,431.611C707.125,432.119 708.954,432.361 710.789,432.327L785.755,434.689C788.23,434.875 790.718,434.736 793.157,434.275C795.552,433.838 797.66,432.422 798.97,430.37C800.405,427.713 799.463,424.44 797.69,421.958C795.917,419.477 793.408,417.52 791.335,415.241C789.261,412.963 787.565,410.119 787.931,407.174C788.223,404.816 789.778,402.779 790.894,400.637C792.01,398.495 792.658,395.819 791.213,393.848C789.176,391.072 784.286,391.323 781.97,388.735C780.222,386.783 780.56,383.972 780.386,381.454C779.968,375.398 775.775,369.678 769.806,367.022C763.653,364.38 756.59,364.861 750.852,368.312L749.026,369.021Z" style="fill:rgb(47,46,65);fill-rule:nonzero;"/>
    </g>
    <g transform="matrix(1.18773,0,0,1.60086,-685.552,-379.314)">
        <ellipse cx="768.5" cy="555" rx="77.5" ry="23" style="fill:rgb(83,50,54);"/>
    </g>
    <g transform="matrix(1.52709,0,0,1.18773,-980.45,-155.969)">
        <path d="M750,574L743,574L740.667,655L747.588,662L752.333,655L750,574Z" style="fill:rgb(83,50,54);"/>
    </g>
    <g transform="matrix(1.8568,0,0,1.44418,-1170.02,-278.224)">
        <path d="M750,574L743,574L740.667,655L747.588,662L752.333,655L750,574Z" style="fill:rgb(83,50,54);"/>
    </g>
    <g transform="matrix(1.47503,0,0,1.14724,-820.742,-150.543)">
        <path d="M750,574L743,574L740.667,655L747.588,662L752.333,655L750,574Z" style="fill:rgb(83,50,54);"/>
    </g>
    <g transform="matrix(1.18773,0,0,1.60086,-685.552,-367.437)">
        <ellipse cx="768.5" cy="555" rx="77.5" ry="23" style="fill:rgb(83,50,54);"/>
    </g>
    <g transform="matrix(-1.35219,0,0,1.35224,1000.63,-128.112)">
        <path d="M560.431,611.995L548.171,611.994L542.339,564.706L560.433,564.707L560.431,611.995Z" style="fill:rgb(160,97,106);fill-rule:nonzero;"/>
    </g>
    <g transform="matrix(-1.35219,0,0,1.35224,1069.51,-164.931)">
        <path d="M560.431,611.995L548.171,611.994L542.339,564.706L560.433,564.707L560.431,611.995Z" style="fill:rgb(160,97,106);fill-rule:nonzero;"/>
    </g>
    <g transform="matrix(-1.35219,0,0,1.35224,1259.45,-271.391)">
        <path d="M737.459,704.144C735.259,704.143 733.366,702.528 733.017,700.356C727.916,664.8 718.131,619.877 719.69,597.642C726.26,580.953 755.839,565.671 756.155,566.288C756.799,567.544 755.221,566.264 754.68,567.567C740.753,576.32 726.981,586.936 712.706,591.514L705.762,673.198C704.856,675.36 702.409,676.476 700.183,675.742L683.149,670.063C680.962,669.342 679.668,667.047 680.183,664.803C673.592,624.478 663.772,577.302 670.858,565.987C688.166,548.651 709.232,537.758 732.007,529.793C732.392,528.115 733.703,526.797 735.379,526.401L787.211,514.369C788.5,514.077 789.853,514.358 790.919,515.139C809.806,528.862 834.115,545.062 819.259,582.043C814.175,594.701 799.11,599.51 786.099,606.928C780.321,610.222 767.802,610.178 767.73,613.105C767.194,635.08 759.569,675.262 757.832,699.275C757.669,701.544 755.81,703.35 753.538,703.449L737.656,704.14C737.59,704.142 737.524,704.144 737.459,704.144Z" style="fill:rgb(47,46,65);fill-rule:nonzero;"/>
    </g>
    <g transform="matrix(-1.35219,0,0,1.35224,894.917,-87.7287)">
        <circle cx="499.781" cy="271.969" r="24.561" style="fill:rgb(160,97,106);"/>
    </g>
    <g transform="matrix(-1.35219,0,0,1.35224,1235.7,-271.391)">
        <path d="M752.86,536.844C746.965,536.806 741.15,535.462 735.836,532.909L735.654,532.824L735.581,532.636L713.552,475.56L713.133,465.643C713.119,465.308 713.112,464.972 713.112,464.637C713.112,451.596 723.843,440.865 736.884,440.865C737.331,440.865 737.777,440.877 738.223,440.902L761.611,442.22C774.079,442.929 783.975,453.342 784.048,465.83C784.655,466.997 788.969,476.122 780.515,484.695C780.199,486.648 777.241,506.943 788.401,518.103L788.715,518.416L788.441,518.765C788.263,518.991 773.931,536.841 752.86,536.844Z" style="fill:rgb(204,204,204);fill-rule:nonzero;"/>
    </g>
    <g transform="matrix(-1.15109,-0.709527,-0.709553,1.15113,1448.35,411.333)">
        <path d="M779.198,543.331C783.167,541.892 788.13,539.037 789.278,534.974C790.2,531.711 791.864,528.192 790.979,526.661L814.338,499.618L795.924,497.221L776.565,523.269C773.767,525.145 770.318,522.5 767.311,527.693C764.502,532.545 766.753,537.742 771.665,540.446C772.714,541.024 779.198,543.331 779.198,543.331Z" style="fill:rgb(160,97,106);fill-rule:nonzero;"/>
    </g>
    <g transform="matrix(-0.88376,1.02342,1.02346,0.883793,385.396,-756.909)">
        <path d="M756.372,519.424C759.604,527.919 753.178,531.72 753.069,531.832C750.168,534.836 745.432,535.511 740.949,532.797C739.298,531.797 737.449,529.29 736.071,527.768C735.778,527.445 732.395,524.536 732.452,524.104L700.495,508.112L716.575,498.824L744.456,515.434C746.041,515.749 747.361,514.529 748.838,514.552C751.753,514.597 755.238,516.443 756.372,519.424Z" style="fill:rgb(160,97,106);fill-rule:nonzero;"/>
    </g>
    <g transform="matrix(-1.35219,0,0,1.35224,1235.7,-271.391)">
        <path d="M789.766,532.573C788.889,532.573 788.03,532.316 787.297,531.833L779.258,531.283C777.252,529.972 778.386,527.275 776.981,521.705L775.682,500.626C776.26,499.656 776.565,498.547 776.565,497.418C776.565,494.951 775.109,492.704 772.858,491.695L766.398,472.139C760.333,469.386 756.95,462.749 758.286,456.224C759.663,449.652 765.51,444.903 772.224,444.903C774.482,444.903 776.709,445.44 778.718,446.47L797.603,473.932C802.24,480.722 802.764,477.666 804.521,484.85C805.478,488.763 804.13,497.198 801.773,500.464L793.415,530.704C792.571,531.878 791.211,532.574 789.766,532.573Z" style="fill:rgb(204,204,204);fill-rule:nonzero;"/>
    </g>
    <g transform="matrix(-1.35219,0,0,1.35224,1227.38,-272.579)">
        <path d="M705.969,541.4C705.305,541.399 704.65,541.252 704.05,540.968L696.39,505.898C696.322,505.461 694.162,501.763 695.919,493.817C696.741,490.099 697.053,486.286 699.176,483.125L710.594,449.124C713.237,445.189 717.677,442.823 722.417,442.823C726.553,442.823 730.49,444.625 733.194,447.755C737.524,452.816 737.78,460.261 733.809,465.607L716.253,490.187C715.439,491.273 713.242,493.472 713.242,494.829C713.242,497.057 715.307,507.03 715.475,509.909L718.181,529.567C718.497,533.405 718.381,536.066 716.383,536.428L709.948,538.992C709.174,540.47 707.637,541.4 705.969,541.4Z" style="fill:rgb(204,204,204);fill-rule:nonzero;"/>
    </g>
    <g transform="matrix(-1.35219,0,0,1.35224,1235.7,-273.767)">
        <path d="M722.281,401.663C730.038,401.04 740.869,397.683 740.063,389.944C739.876,396.516 741.184,406.64 747.691,407.581C751.248,407.973 757.037,405.323 758.246,408.692C759.535,412.286 760.23,417.415 766.347,417.225C768.291,417.164 774.486,427.56 776.247,426.741C777.954,425.947 778.564,410.488 779.404,408.8C781.109,405.37 780.691,401.25 779.56,397.59C775.475,384.362 763.162,375.278 749.318,375.278C740.894,375.278 732.81,378.641 726.871,384.615C723.609,387.895 721.02,392.076 720.6,396.683C720.18,401.29 722.281,401.663 722.281,401.663Z" style="fill:rgb(47,46,65);fill-rule:nonzero;"/>
    </g>
    <g transform="matrix(1.18773,0,0,1.06271,-744.939,-74.5151)">
        <rect x="742" y="547" width="7" height="19" style="fill:rgb(83,50,54);"/>
    </g>
    <g transform="matrix(-1.35385,-0.0301586,-0.032339,1.45173,607.958,1.81731)">
        <path d="M261.419,496.61C251.108,504.95 241.914,511.86 219.072,505.368L215.535,502.252C214.023,492.215 224.364,486.197 234.401,484.684L240.279,473.622L255.472,475.206L260.464,472.975L259.022,486.742L261.419,496.61Z" style="fill:rgb(47,46,65);fill-rule:nonzero;"/>
    </g>
    <g transform="matrix(-1.35385,-0.0301586,-0.032339,1.45173,676.847,-19.5619)">
        <path d="M261.419,496.61C251.108,504.95 241.914,511.86 219.072,505.368L215.535,502.252C214.023,492.215 224.364,486.197 234.401,484.684L240.279,473.622L255.472,475.206L260.464,472.975L259.022,486.742L261.419,496.61Z" style="fill:rgb(47,46,65);fill-rule:nonzero;"/>
    </g>
</svg>
