<?xml version="1.0" encoding="UTF-8" standalone="no"?>
<!DOCTYPE svg PUBLIC "-//W3C//DTD SVG 1.1//EN" "http://www.w3.org/Graphics/SVG/1.1/DTD/svg11.dtd">
<svg width="100%" height="100%" viewBox="0 0 459 441" version="1.1" xmlns="http://www.w3.org/2000/svg" xmlns:xlink="http://www.w3.org/1999/xlink" xml:space="preserve" xmlns:serif="http://www.serif.com/" style="fill-rule:evenodd;clip-rule:evenodd;stroke-linejoin:round;stroke-miterlimit:1.41421;">
    <g transform="matrix(6.72308,0,0,6.72308,12,9.6916)">
        <ellipse cx="32.5" cy="31" rx="32.5" ry="31" style="fill:rgb(221,243,239);"/>
    </g>
    <g transform="matrix(6.72308,0,0,6.72308,12,9.6916)">
        <path d="M31.767,45.354C22.686,32.189 21,30.838 21,26C21,19.373 26.373,14 33,14C39.627,14 45,19.373 45,26C45,30.838 43.314,32.189 34.233,45.354C33.637,46.215 32.363,46.215 31.767,45.354ZM33,31C35.761,31 38,28.761 38,26C38,23.239 35.761,21 33,21C30.239,21 28,23.239 28,26C28,28.761 30.239,31 33,31Z" style="fill:rgb(76,183,161);fill-rule:nonzero;"/>
    </g>
</svg>
