<?xml version="1.0" encoding="UTF-8" standalone="no"?>
<!DOCTYPE svg PUBLIC "-//W3C//DTD SVG 1.1//EN" "http://www.w3.org/Graphics/SVG/1.1/DTD/svg11.dtd">
<svg width="100%" height="100%" viewBox="0 0 459 441" version="1.1" xmlns="http://www.w3.org/2000/svg" xmlns:xlink="http://www.w3.org/1999/xlink" xml:space="preserve" xmlns:serif="http://www.serif.com/" style="fill-rule:evenodd;clip-rule:evenodd;stroke-linejoin:round;stroke-miterlimit:1.41421;">
    <g transform="matrix(6.66154,0,0,6.66154,10.7712,17.7006)">
        <ellipse cx="32.5" cy="31" rx="32.5" ry="31" style="fill:rgb(230,243,255);"/>
    </g>
    <g transform="matrix(6.66154,0,0,6.66154,10.7712,17.7006)">
        <path d="M25.18,18.149C25.115,18.082 25.037,18.028 24.952,17.991C24.866,17.955 24.775,17.936 24.682,17.936C24.59,17.936 24.498,17.955 24.413,17.991C24.327,18.028 24.25,18.082 24.184,18.149L20.453,21.983L19.123,20.643C19.058,20.576 18.98,20.522 18.894,20.485C18.809,20.449 18.717,20.43 18.625,20.43C18.532,20.43 18.441,20.449 18.355,20.485C18.27,20.522 18.192,20.576 18.127,20.643L17.207,21.595C17.141,21.663 17.089,21.743 17.054,21.831C17.018,21.92 17,22.014 17,22.11C17,22.205 17.018,22.3 17.054,22.388C17.089,22.477 17.141,22.557 17.207,22.624L19.995,25.494C20.135,25.631 20.319,25.707 20.511,25.707C20.703,25.707 20.888,25.631 21.027,25.494L21.941,24.549L26.171,20.178C26.303,20.041 26.377,19.857 26.378,19.664C26.379,19.472 26.307,19.286 26.176,19.148L25.18,18.149ZM25.18,27.788C25.115,27.72 25.037,27.666 24.952,27.63C24.866,27.593 24.775,27.574 24.682,27.574C24.59,27.574 24.498,27.593 24.413,27.63C24.327,27.666 24.25,27.72 24.184,27.788L20.453,31.646L19.123,30.308C19.058,30.24 18.98,30.186 18.894,30.15C18.809,30.113 18.717,30.094 18.625,30.094C18.532,30.094 18.441,30.113 18.355,30.15C18.27,30.186 18.192,30.24 18.127,30.308L17.207,31.258C17.141,31.325 17.089,31.406 17.054,31.494C17.018,31.582 17,31.677 17,31.773C17,31.868 17.018,31.963 17.054,32.051C17.089,32.139 17.141,32.22 17.207,32.287L19.988,35.163C20.127,35.3 20.312,35.376 20.504,35.376C20.696,35.376 20.88,35.3 21.02,35.163L21.94,34.213L26.17,29.84C26.301,29.705 26.376,29.522 26.376,29.33C26.377,29.138 26.305,28.954 26.175,28.817L25.18,27.788ZM20.75,38.281C19.198,38.281 17.903,39.583 17.903,41.188C17.903,42.792 19.199,44.094 20.75,44.094C21.496,44.094 22.211,43.788 22.739,43.243C23.266,42.698 23.563,41.958 23.563,41.188C23.563,40.417 23.266,39.678 22.739,39.133C22.211,38.588 21.496,38.281 20.75,38.281ZM46.063,39.25L29.188,39.25C28.939,39.25 28.7,39.352 28.525,39.534C28.349,39.715 28.25,39.962 28.25,40.219L28.25,42.156C28.25,42.413 28.349,42.66 28.525,42.841C28.7,43.023 28.939,43.125 29.188,43.125L46.063,43.125C46.311,43.125 46.55,43.023 46.725,42.841C46.901,42.66 47,42.413 47,42.156L47,40.219C47,39.962 46.901,39.715 46.725,39.534C46.55,39.352 46.311,39.25 46.063,39.25ZM46.063,19.875L29.188,19.875C28.939,19.875 28.7,19.977 28.525,20.159C28.349,20.34 28.25,20.587 28.25,20.844L28.25,22.781C28.25,23.038 28.349,23.285 28.525,23.466C28.7,23.648 28.939,23.75 29.188,23.75L46.063,23.75C46.311,23.75 46.55,23.648 46.725,23.466C46.901,23.285 47,23.038 47,22.781L47,20.844C47,20.587 46.901,20.34 46.725,20.159C46.55,19.977 46.311,19.875 46.063,19.875ZM46.063,29.563L29.188,29.563C28.939,29.563 28.7,29.665 28.525,29.846C28.349,30.028 28.25,30.274 28.25,30.531L28.25,32.469C28.25,32.726 28.349,32.972 28.525,33.154C28.7,33.335 28.939,33.438 29.188,33.438L46.063,33.438C46.311,33.438 46.55,33.335 46.725,33.154C46.901,32.972 47,32.726 47,32.469L47,30.531C47,30.274 46.901,30.028 46.725,29.846C46.55,29.665 46.311,29.563 46.063,29.563Z" style="fill:rgb(0,105,205);fill-rule:nonzero;"/>
    </g>
</svg>
