<?xml version="1.0" encoding="UTF-8" standalone="no"?>
<!DOCTYPE svg PUBLIC "-//W3C//DTD SVG 1.1//EN" "http://www.w3.org/Graphics/SVG/1.1/DTD/svg11.dtd">
<svg width="100%" height="100%" viewBox="0 0 459 441" version="1.1" xmlns="http://www.w3.org/2000/svg" xmlns:xlink="http://www.w3.org/1999/xlink" xml:space="preserve" xmlns:serif="http://www.serif.com/" style="fill-rule:evenodd;clip-rule:evenodd;stroke-linejoin:round;stroke-miterlimit:1.41421;">
    <g transform="matrix(6.89231,0,0,6.89231,5,6.19929)">
        <ellipse cx="32.5" cy="31" rx="32.5" ry="31" style="fill:rgb(255,216,207);"/>
    </g>
    <g transform="matrix(6.89231,0,0,6.89231,5,6.19929)">
        <path d="M50.595,39.501C51.748,41.5 50.3,44 47.996,44L18.003,44C15.695,44 14.253,41.497 15.405,39.501L30.401,13.499C31.555,11.499 34.446,11.502 35.598,13.499L50.595,39.501ZM33,34.125C31.412,34.125 30.125,35.412 30.125,37C30.125,38.588 31.412,39.875 33,39.875C34.588,39.875 35.875,38.588 35.875,37C35.875,35.412 34.588,34.125 33,34.125ZM30.27,23.791L30.734,32.291C30.756,32.689 31.084,33 31.483,33L34.517,33C34.915,33 35.244,32.689 35.266,32.291L35.729,23.791C35.753,23.361 35.411,23 34.98,23L31.019,23C30.589,23 30.247,23.361 30.27,23.791Z" style="fill:rgb(254,72,33);fill-rule:nonzero;"/>
    </g>
</svg>
