<?xml version="1.0" encoding="UTF-8" standalone="no"?>
<!DOCTYPE svg PUBLIC "-//W3C//DTD SVG 1.1//EN" "http://www.w3.org/Graphics/SVG/1.1/DTD/svg11.dtd">
<svg width="100%" height="100%" viewBox="0 0 459 441" version="1.1" xmlns="http://www.w3.org/2000/svg" xmlns:xlink="http://www.w3.org/1999/xlink" xml:space="preserve" xmlns:serif="http://www.serif.com/" style="fill-rule:evenodd;clip-rule:evenodd;stroke-linejoin:round;stroke-miterlimit:1.41421;">
    <g transform="matrix(6.93846,0,0,6.93846,2,3.33775)">
        <ellipse cx="32.5" cy="31" rx="32.5" ry="31" style="fill:rgb(193,160,205);"/>
    </g>
    <g transform="matrix(6.93846,0,0,6.93846,2,3.33775)">
        <path d="M48.318,35.581L45.406,33.899C45.7,32.313 45.7,30.686 45.406,29.101L48.318,27.419C48.653,27.228 48.804,26.831 48.694,26.462C47.936,24.028 46.644,21.827 44.955,19.995C44.695,19.715 44.272,19.647 43.943,19.838L41.031,21.52C39.808,20.467 38.399,19.653 36.875,19.12L36.875,15.764C36.875,15.381 36.608,15.046 36.232,14.964C33.724,14.403 31.153,14.431 28.768,14.964C28.392,15.046 28.125,15.381 28.125,15.764L28.125,19.127C26.607,19.667 25.199,20.481 23.969,21.526L21.064,19.845C20.729,19.653 20.312,19.715 20.052,20.002C18.363,21.827 17.071,24.028 16.313,26.469C16.196,26.838 16.354,27.234 16.689,27.426L19.601,29.107C19.307,30.693 19.307,32.32 19.601,33.906L16.689,35.588C16.354,35.779 16.203,36.176 16.313,36.545C17.071,38.978 18.363,41.18 20.052,43.012C20.312,43.292 20.735,43.36 21.064,43.169L23.976,41.487C25.199,42.54 26.607,43.353 28.132,43.887L28.132,47.25C28.132,47.633 28.398,47.968 28.774,48.05C31.283,48.61 33.853,48.583 36.239,48.05C36.615,47.968 36.882,47.633 36.882,47.25L36.882,43.887C38.399,43.347 39.808,42.533 41.038,41.487L43.95,43.169C44.285,43.36 44.702,43.299 44.962,43.012C46.65,41.187 47.942,38.985 48.701,36.545C48.804,36.169 48.653,35.773 48.318,35.581ZM32.5,36.969C29.485,36.969 27.031,34.515 27.031,31.5C27.031,28.485 29.485,26.031 32.5,26.031C35.515,26.031 37.969,28.485 37.969,31.5C37.969,34.515 35.515,36.969 32.5,36.969Z" style="fill:rgb(91,1,125);fill-rule:nonzero;"/>
    </g>
</svg>
