<?xml version="1.0" encoding="UTF-8" standalone="no"?>
<!DOCTYPE svg PUBLIC "-//W3C//DTD SVG 1.1//EN" "http://www.w3.org/Graphics/SVG/1.1/DTD/svg11.dtd">
<svg width="100%" height="100%" viewBox="0 0 459 441" version="1.1" xmlns="http://www.w3.org/2000/svg" xmlns:xlink="http://www.w3.org/1999/xlink" xml:space="preserve" xmlns:serif="http://www.serif.com/" style="fill-rule:evenodd;clip-rule:evenodd;stroke-linejoin:round;stroke-miterlimit:1.41421;">
    <g transform="matrix(6.73846,0,0,6.73846,11,8.73775)">
        <ellipse cx="32.5" cy="31" rx="32.5" ry="31" style="fill:rgb(221,255,167);"/>
    </g>
    <g transform="matrix(6.73846,0,0,6.73846,11,8.73775)">
        <path d="M40.56,18.526L46.511,24.516C46.762,24.768 46.762,25.18 46.511,25.432L32.103,39.935L25.981,40.619C25.163,40.712 24.47,40.015 24.562,39.191L25.242,33.029L39.65,18.526C39.901,18.273 40.31,18.273 40.56,18.526ZM51.248,17.005L48.029,13.764C47.026,12.755 45.396,12.755 44.387,13.764L42.051,16.115C41.801,16.368 41.801,16.779 42.051,17.032L48.002,23.022C48.253,23.274 48.662,23.274 48.913,23.022L51.248,20.671C52.251,19.655 52.251,18.014 51.248,17.005ZM39.333,35.991L39.333,42.751L18.222,42.751L18.222,21.501L33.383,21.501C33.594,21.501 33.792,21.414 33.943,21.268L36.582,18.612C37.084,18.107 36.727,17.251 36.022,17.251L17.167,17.251C15.418,17.251 14,18.679 14,20.438L14,43.813C14,45.573 15.418,47.001 17.167,47.001L40.389,47.001C42.137,47.001 43.556,45.573 43.556,43.813L43.556,33.334C43.556,32.624 42.705,32.272 42.203,32.77L39.564,35.426C39.419,35.579 39.333,35.778 39.333,35.991Z" style="fill:rgb(126,189,27);fill-rule:nonzero;"/>
    </g>
</svg>
